HIERARCHY
ROOT Hips
{
    OFFSET   0.000000   0.000000   0.000000
    CHANNELS 6 Xposition Yposition Zposition Zrotation Xrotation Yrotation
    JOINT Chest
    {
        OFFSET   0.000000   8.007230   0.000000
        CHANNELS 3 Zrotation Xrotation Yrotation
        JOINT Chest2
        {
            OFFSET   0.000000  22.077100   0.000000
            CHANNELS 3 Zrotation Xrotation Yrotation
            JOINT Neck
            {
                OFFSET   0.000000  23.254800   0.000000
                CHANNELS 3 Zrotation Xrotation Yrotation
                JOINT Head
                {
                    OFFSET   0.000010  14.370000   1.956600
                    CHANNELS 3 Zrotation Xrotation Yrotation
                    End Site
                    {
                        OFFSET   0.000000  19.566000   0.000000
                    }
                }
            }
            JOINT LeftCollar
            {
                OFFSET   3.911900  19.017000  -0.467062
                CHANNELS 3 Zrotation Xrotation Yrotation
                JOINT LeftShoulder
                {
                    OFFSET  10.383700   0.000000   0.000000
                    CHANNELS 3 Zrotation Xrotation Yrotation
                    JOINT LeftElbow
                    {
                        OFFSET  26.662100   0.001193   0.000835
                        CHANNELS 3 Zrotation Xrotation Yrotation
                        JOINT LeftWrist
                        {
                            OFFSET  28.869000  -0.000058  -0.000075
                            CHANNELS 3 Zrotation Xrotation Yrotation
                            JOINT LeftFinger0
                            {
                                OFFSET   2.044660  -2.323460   3.252850
                                CHANNELS 3 Zrotation Xrotation Yrotation
                                JOINT LeftFinger01
                                {
                                    OFFSET   3.088130   0.000000   0.000000
                                    CHANNELS 3 Zrotation Xrotation Yrotation
                                    JOINT LeftFinger02
                                    {
                                        OFFSET   2.639450   0.000000   0.000000
                                        CHANNELS 3 Zrotation Xrotation Yrotation
                                        End Site
                                        {
                                            OFFSET   2.582190   0.000000   0.000000
                                        }
                                    }
                                }
                            }
                            JOINT LeftFinger1
                            {
                                OFFSET   8.364480   0.000000   3.252850
                                CHANNELS 3 Zrotation Xrotation Yrotation
                                JOINT LeftFinger11
                                {
                                    OFFSET   4.646920   0.000000   0.000000
                                    CHANNELS 3 Zrotation Xrotation Yrotation
                                    JOINT LeftFinger12
                                    {
                                        OFFSET   2.323460   0.000000   0.000000
                                        CHANNELS 3 Zrotation Xrotation Yrotation
                                        End Site
                                        {
                                            OFFSET   2.273050   0.000000   0.000000
                                        }
                                    }
                                }
                            }
                            JOINT LeftFinger2
                            {
                                OFFSET   8.364490   0.000016   1.078090
                                CHANNELS 3 Zrotation Xrotation Yrotation
                                JOINT LeftFinger21
                                {
                                    OFFSET   5.111620   0.000000   0.000000
                                    CHANNELS 3 Zrotation Xrotation Yrotation
                                    JOINT LeftFinger22
                                    {
                                        OFFSET   2.788150   0.000012   0.000000
                                        CHANNELS 3 Zrotation Xrotation Yrotation
                                        End Site
                                        {
                                            OFFSET   2.727660   0.000000   0.000000
                                        }
                                    }
                                }
                            }
                            JOINT LeftFinger3
                            {
                                OFFSET   7.899780   0.000014  -1.078090
                                CHANNELS 3 Zrotation Xrotation Yrotation
                                JOINT LeftFinger31
                                {
                                    OFFSET   4.646930   0.000000   0.000000
                                    CHANNELS 3 Zrotation Xrotation Yrotation
                                    JOINT LeftFinger32
                                    {
                                        OFFSET   2.323470   0.000000   0.000000
                                        CHANNELS 3 Zrotation Xrotation Yrotation
                                        End Site
                                        {
                                            OFFSET   2.273050   0.000000   0.000000
                                        }
                                    }
                                }
                            }
                            JOINT LeftFinger4
                            {
                                OFFSET   7.435090   0.000000  -3.252850
                                CHANNELS 3 Zrotation Xrotation Yrotation
                                JOINT LeftFinger41
                                {
                                    OFFSET   3.717550   0.000000   0.000000
                                    CHANNELS 3 Zrotation Xrotation Yrotation
                                    JOINT LeftFinger42
                                    {
                                        OFFSET   1.858770   0.000000   0.000000
                                        CHANNELS 3 Zrotation Xrotation Yrotation
                                        End Site
                                        {
                                            OFFSET   1.818440   0.000000   0.000000
                                        }
                                    }
                                }
                            }
                        }
                    }
                }
            }
            JOINT RightCollar
            {
                OFFSET  -3.911900  19.017000  -0.467063
                CHANNELS 3 Zrotation Xrotation Yrotation
                JOINT RightShoulder
                {
                    OFFSET -10.383700   0.000023   0.000000
                    CHANNELS 3 Zrotation Xrotation Yrotation
                    JOINT RightElbow
                    {
                        OFFSET -26.662100   0.001246   0.001011
                        CHANNELS 3 Zrotation Xrotation Yrotation
                        JOINT RightWrist
                        {
                            OFFSET -28.869000  -0.000026  -0.000078
                            CHANNELS 3 Zrotation Xrotation Yrotation
                            JOINT RightFinger0
                            {
                                OFFSET  -2.044660  -2.323490   3.252850
                                CHANNELS 3 Zrotation Xrotation Yrotation
                                JOINT RightFinger01
                                {
                                    OFFSET  -3.088130   0.000000   0.000000
                                    CHANNELS 3 Zrotation Xrotation Yrotation
                                    JOINT RightFinger02
                                    {
                                        OFFSET  -2.639460   0.000000   0.000000
                                        CHANNELS 3 Zrotation Xrotation Yrotation
                                        End Site
                                        {
                                            OFFSET  -2.582190   0.000000   0.000000
                                        }
                                    }
                                }
                            }
                            JOINT RightFinger1
                            {
                                OFFSET  -8.364480   0.000000   3.252850
                                CHANNELS 3 Zrotation Xrotation Yrotation
                                JOINT RightFinger11
                                {
                                    OFFSET  -4.646920   0.000000   0.000000
                                    CHANNELS 3 Zrotation Xrotation Yrotation
                                    JOINT RightFinger12
                                    {
                                        OFFSET  -2.323470   0.000000   0.000000
                                        CHANNELS 3 Zrotation Xrotation Yrotation
                                        End Site
                                        {
                                            OFFSET  -2.273050   0.000000   0.000000
                                        }
                                    }
                                }
                            }
                            JOINT RightFinger2
                            {
                                OFFSET  -8.364480   0.000000   1.078090
                                CHANNELS 3 Zrotation Xrotation Yrotation
                                JOINT RightFinger21
                                {
                                    OFFSET  -5.111620   0.000000   0.000000
                                    CHANNELS 3 Zrotation Xrotation Yrotation
                                    JOINT RightFinger22
                                    {
                                        OFFSET  -2.788160   0.000000   0.000000
                                        CHANNELS 3 Zrotation Xrotation Yrotation
                                        End Site
                                        {
                                            OFFSET  -2.727660   0.000000   0.000000
                                        }
                                    }
                                }
                            }
                            JOINT RightFinger3
                            {
                                OFFSET  -7.899780   0.000000  -1.078090
                                CHANNELS 3 Zrotation Xrotation Yrotation
                                JOINT RightFinger31
                                {
                                    OFFSET  -4.646930   0.000000   0.000000
                                    CHANNELS 3 Zrotation Xrotation Yrotation
                                    JOINT RightFinger32
                                    {
                                        OFFSET  -2.323470   0.000000   0.000000
                                        CHANNELS 3 Zrotation Xrotation Yrotation
                                        End Site
                                        {
                                            OFFSET  -2.273050   0.000000   0.000000
                                        }
                                    }
                                }
                            }
                            JOINT RightFinger4
                            {
                                OFFSET  -7.435090   0.000000  -3.252850
                                CHANNELS 3 Zrotation Xrotation Yrotation
                                JOINT RightFinger41
                                {
                                    OFFSET  -3.717550   0.000000   0.000000
                                    CHANNELS 3 Zrotation Xrotation Yrotation
                                    JOINT RightFinger42
                                    {
                                        OFFSET  -1.858760   0.000000   0.000000
                                        CHANNELS 3 Zrotation Xrotation Yrotation
                                        End Site
                                        {
                                            OFFSET  -1.818440   0.000000   0.000000
                                        }
                                    }
                                }
                            }
                        }
                    }
                }
            }
        }
    }
    JOINT LeftHip
    {
        OFFSET   9.783010   0.000000   0.000000
        CHANNELS 3 Zrotation Xrotation Yrotation
        JOINT LeftKnee
        {
            OFFSET   0.000073 -41.789100   0.001749
            CHANNELS 3 Zrotation Xrotation Yrotation
            JOINT LeftAnkle
            {
                OFFSET   0.000111 -41.133200  -0.000179
                CHANNELS 3 Zrotation Xrotation Yrotation
                JOINT LeftToe
                {
                    OFFSET   0.000000  -6.358960  14.674500
                    CHANNELS 3 Zrotation Xrotation Yrotation
                    End Site
                    {
                        OFFSET   0.000000   0.000000   3.913200
                    }
                }
            }
        }
    }
    JOINT RightHip
    {
        OFFSET  -9.783010   0.000000   0.000000
        CHANNELS 3 Zrotation Xrotation Yrotation
        JOINT RightKnee
        {
            OFFSET   0.000424 -41.789200   0.005205
            CHANNELS 3 Zrotation Xrotation Yrotation
            JOINT RightAnkle
            {
                OFFSET   0.000000 -41.133200  -0.000155
                CHANNELS 3 Zrotation Xrotation Yrotation
                JOINT RightToe
                {
                    OFFSET   0.000000  -6.358960  14.674500
                    CHANNELS 3 Zrotation Xrotation Yrotation
                    End Site
                    {
                        OFFSET   0.000000   0.000000   3.913200
                    }
                }
            }
        }
    }
}
MOTION
Frames: 5
Frame Time:   0.016667
 -0.453981  89.588700  -2.196720  -4.260560 -13.049900  -5.273990  -0.482884   7.069820  -0.907315  -0.861835  14.146300  -1.774580   7.197840   5.147450  -0.649501  12.077200   9.944010  -8.159390   2.239150   1.559780  -1.445260 -74.353000  24.196200  -4.244420  -2.909060  -6.410920 -16.572000  11.889500  -7.678810   2.024060  37.149800  27.765100 -56.194000 -31.682100  -0.006716   0.002374 -10.841100   0.003521   0.001847 -23.216600   3.350280  -7.737990 -19.181600  -0.000258   0.000383 -13.427100   0.007701   0.007224 -27.753900   0.599431  -1.138980 -30.556000  -0.000920   0.001311 -20.350300  -0.000406   0.001966 -27.379000   0.591980  -1.142860 -28.653100   0.000827  -0.008452 -19.083000   0.003225  -0.009257 -27.934000   0.603048  -1.137070 -41.910700   0.000571   0.001204 -27.912100   0.006625   0.003689  -1.465060  -5.317510  -1.066110  42.414300  18.784300  59.969700 -37.391200 -28.746900  59.459600   8.196850 -27.029400  -9.905250 -30.073200  41.532500  70.716400  56.258500  -0.000639   0.000956  30.808100  -0.001077   0.008823   1.330230  -0.099549  -4.360940   1.091840  -0.002174   0.006916   0.764281   0.000339  -0.003900   6.656830  -0.505430  -4.332670   6.676150  -0.002057  -0.000970   4.446310  -0.001038  -0.001524  80.674700  -4.937120  -0.809720  80.709600  -0.001896  -0.001822  60.532200  -0.000929   0.003870  87.609700 -10.002400  -0.415775 110.000000  -0.007677  -0.001854  80.000000   0.001256   0.001299   4.062340  15.596100   3.141270   1.626950   0.061151   3.392900  -2.248830  -3.254370   1.637930  -0.000000   0.000000  -0.000000   2.942080  13.855900  -2.477520  -0.302695   1.673910  -4.492940   0.325138  -3.132050   1.492400  -0.000000   0.000000  -0.000000
 -0.450392  89.588700  -2.191730  -4.254550 -13.062700  -5.257080  -0.477221   7.080400  -0.895287  -0.851777  14.167200  -1.750910   7.178140   5.191280  -0.652847  12.048900  10.031600  -8.190090   2.174190   1.534450  -1.383900 -74.327200  24.249800  -4.240410  -2.931450  -6.450870 -16.524800  11.851800  -7.593140   2.021820  37.123000  27.673100 -56.129400 -31.649800  -0.007237   0.002038 -10.824900   0.003879   0.001457 -23.208000   3.349830  -7.751670 -19.174300   0.000531   0.000266 -13.422000   0.008637   0.007713 -27.749300   0.603549  -1.147020 -30.531900  -0.000346   0.001372 -20.334200   0.000448   0.002003 -27.378000   0.596109  -1.150900 -28.651100   0.001225  -0.008680 -19.081600   0.003398  -0.009331 -27.928600   0.607129  -1.145140 -41.901900   0.000444   0.001438 -27.906700   0.006478   0.004117  -1.390830  -5.313480  -0.807830  42.224000  18.540400  60.549300 -37.306000 -27.945800  58.314200   8.016930 -26.600700  -9.845810 -29.976200  41.150600  70.528800  56.171000  -0.000654   0.000908  30.749900  -0.001060   0.008922   1.362990  -0.097958  -4.160740   1.118130  -0.002230   0.007013   0.782680   0.000334  -0.003896   6.733260  -0.487668  -4.133290   6.750910  -0.002177  -0.000927   4.496110  -0.001109  -0.001468  80.806200  -4.937010  -0.798352  80.840600  -0.001933  -0.001848  60.630400  -0.000940   0.003942  87.739900 -10.002400  -0.392778 110.000000  -0.007678  -0.001859  80.000000   0.001236   0.001280   4.059000  15.633700   3.135050   1.628020   0.002021   3.395400  -2.248000  -3.222730   1.629320   0.000000   0.000000   0.000000   2.934370  13.874300  -2.500870  -0.298528   1.671530  -4.451940   0.323588  -3.132270   1.461070   0.000000   0.000000   0.000000
 -0.447891  89.588600  -2.186400  -4.255210 -13.074800  -5.250520  -0.468848   7.094050  -0.869288  -0.837959  14.194300  -1.699340   7.168220   5.227230  -0.653894  12.032100  10.103300  -8.248570   2.114770   1.507330  -1.331300 -74.306700  24.286600  -4.251980  -2.950630  -6.483150 -16.483700  11.825200  -7.528550   2.015320  37.061700  27.475300 -55.942300 -31.630700  -0.007709  -0.001472 -10.815300   0.004172  -0.003432 -23.175600   3.350080  -7.768450 -19.147600   0.003579   0.000241 -13.403300   0.009474   0.008230 -27.740100   0.611434  -1.162430 -30.481300   0.004816   0.001440 -20.300500   0.003821   0.002032 -27.369700   0.603899  -1.166370 -28.614200   0.001463  -0.008910 -19.057100   0.003522  -0.009369 -27.902000   0.614714  -1.160690 -41.861800   0.001764   0.001655 -27.880200   0.006348   0.004364  -1.337360  -5.331260  -0.582091  42.180700  18.253800  61.000400 -37.023400 -27.179800  57.450400   7.925640 -26.396100  -9.727630 -29.939300  40.865300  70.428400  56.099500  -0.000662   0.000969  30.702300  -0.001056   0.009016   1.472740  -0.100070  -3.963010   1.207750  -0.002288   0.007119   0.845417   0.000319  -0.003885   6.866480  -0.473078  -3.936020   6.883040  -0.002301  -0.000879   4.584120  -0.001176  -0.001402  80.897400  -4.936910  -0.790238  80.931400  -0.001973  -0.001871  60.698500  -0.000959   0.004024  87.843600 -10.002400  -0.374624 110.000000  -0.007671  -0.001857  80.000000   0.001214   0.001259   4.060350  15.632100   3.129390   1.628000   0.030031   3.397590  -2.248520  -3.238460   1.625000  -0.000000   0.000000  -0.000000   2.933400  13.895800  -2.515930  -0.295496   1.662540  -4.415740   0.321695  -3.128520   1.432470   0.000000   0.000000   0.000000
 -0.445950  89.588600  -2.180070  -4.258190 -13.085700  -5.246490  -0.460378   7.110700  -0.833711  -0.825146  14.227300  -1.628380   7.165420   5.244630  -0.654205  12.032300  10.137100  -8.324600   2.058200   1.475100  -1.282150 -74.285800  24.314700  -4.271130  -2.962520  -6.500920 -16.462300  11.812100  -7.494620   2.010210  37.017200  27.337000 -55.802800 -31.613900  -0.008141  -0.004954 -10.806900   0.004385  -0.008607 -23.149400   3.352570  -7.788460 -19.127200   0.008423   0.000237 -13.389000   0.010553   0.008773 -27.733400   0.620612  -1.180220 -30.445700   0.013505   0.001710 -20.276800   0.008826   0.002143 -27.362100   0.612945  -1.184240 -28.579100   0.002250  -0.009177 -19.033700   0.003958  -0.009380 -27.880400   0.623613  -1.178620 -41.830100   0.005341   0.001857 -27.858900   0.006238   0.005166  -1.291180  -5.369210  -0.378466  42.148800  18.004000  61.367500 -36.703500 -26.531900  56.757100   7.926610 -26.266100  -9.599810 -29.929100  40.713600  70.385700  56.001300  -0.000670   0.001072  30.636900  -0.001053   0.009108   1.554820  -0.102182  -3.764160   1.274840  -0.002344   0.007223   0.892382   0.000304  -0.003871   6.958930  -0.456722  -3.737770   6.973780  -0.002423  -0.000829   4.644560  -0.001243  -0.001335  80.944000  -4.936810  -0.786020  80.977900  -0.002014  -0.001890  60.733400  -0.000979   0.004108  87.934000 -10.002500  -0.358810 110.000000  -0.007657  -0.001852  80.000000   0.001196   0.001235   4.062190  15.630400   3.122790   1.629300   0.058040   3.398840  -2.249660  -3.254180   1.622840  -0.000000   0.000000  -0.000000   2.934580  13.916900  -2.529600  -0.292365   1.652710  -4.381250   0.319707  -3.122840   1.406540  -0.000000   0.000000   0.000000
 -0.444590  89.588500  -2.171860  -4.262540 -13.095700  -5.239470  -0.455019   7.131190  -0.790396  -0.819599  14.267900  -1.541330   7.174610   5.244220  -0.654651  12.050400  10.134100  -8.412450   2.003030   1.436790  -1.232930 -74.259400  24.329100  -4.292750  -2.962910  -6.493100 -16.466400  11.830500  -7.514330   2.010070  37.051100  27.409200 -55.882700 -31.591800  -0.008540  -0.005295 -10.795900   0.004490  -0.009381 -23.148600   3.362180  -7.813420 -19.127900   0.015019   0.002018 -13.389500   0.012487   0.009173 -27.734500   0.630549  -1.199030 -30.453200   0.024042   0.006545 -20.281800   0.015719   0.006033 -27.364100   0.622721  -1.203140 -28.579800   0.007263  -0.009442 -19.034200   0.008094  -0.009358 -27.881500   0.633613  -1.197390 -41.832200   0.011738   0.002046 -27.860300   0.006148   0.007454  -1.253780  -5.419220  -0.188655  42.069600  17.847600  61.643700 -36.477800 -26.143200  56.153800   8.004020 -26.113200  -9.480710 -30.027900  40.816400  70.520700  55.821500  -0.000683   0.001177  30.517200  -0.001038   0.009200   1.488390  -0.094395  -3.567630   1.220220  -0.002396   0.007312   0.854144   0.000297  -0.003863   6.920860  -0.431402  -3.542700   6.934130  -0.002539  -0.000780   4.618160  -0.001314  -0.001273  80.922600  -4.936700  -0.786662  80.956500  -0.002050  -0.001904  60.717300  -0.000990   0.004195  87.998500 -10.002500  -0.347591 110.000000  -0.007637  -0.001839  80.000000   0.001190   0.001210   4.066240  15.655300   3.114090   1.633120   0.029755   3.398830  -2.251210  -3.243220   1.621280  -0.000000   0.000000   0.000000   2.935050  13.936700  -2.543760  -0.289642   1.646190  -4.350030   0.318101  -3.119920   1.382260   0.000000   0.000000   0.000000
